<?xml version="1.0" encoding="UTF-8"?>
<svg width="450px" height="139px" viewBox="0 0 450 139" version="1.1" xmlns="http://www.w3.org/2000/svg" xmlns:xlink="http://www.w3.org/1999/xlink">
    <!-- Generator: Sketch 42 (36781) - http://www.bohemiancoding.com/sketch -->
    <title>Page 1</title>
    <desc>Created with Sketch.</desc>
    <defs>
        <polygon id="path-1" points="47.7939623 1.33584906 1.12981132 1.33584906 1.12981132 134.806981 47.7939623 134.806981 47.7939623 1.33584906"></polygon>
        <polygon id="path-3" points="87.0503774 93.3962264 1.4654717 93.3962264 1.4654717 2.51179245 87.0503774 2.51179245"></polygon>
    </defs>
    <g stroke="none" stroke-width="1" fill="none" fill-rule="evenodd">
        <g transform="translate(-155.000000, -46.000000)">
            <g transform="translate(155.000000, 44.000000)">
                <path d="M92.31,140.174434 L70.71,88.2121698 L48.0911321,139.35934 L42.7930189,140.174434 L12.4307547,67.4272642 C10.2543396,62.1291509 6.11377358,59.4800943 0.000566037736,59.4800943 L0.000566037736,53.3668868 L40.5515094,53.3668868 L40.5515094,59.4800943 C34.2996226,59.4800943 31.1779245,61.5178302 31.1779245,65.5933019 C31.1779245,66.9546226 31.650566,69.0574528 32.6043396,71.910283 L50.5364151,116.129151 L67.4496226,78.8385849 L62.9666038,64.7753774 C60.6543396,61.2461321 56.5137736,59.4800943 50.5364151,59.4800943 L50.5364151,53.3668868 L91.6986792,53.3668868 L91.6986792,59.4800943 C84.3628302,59.4800943 80.6949057,61.0423585 80.6949057,64.169717 C80.6949057,65.5253774 81.2354717,68.3810377 82.3250943,72.7253774 L99.2383019,116.129151 C105.076981,101.049906 109.393019,89.5338679 112.177925,81.5895283 C114.96,73.6423585 116.692075,69.1253774 117.374151,68.0385849 L117.374151,65.5933019 C117.374151,61.5178302 113.227925,59.4800943 104.943962,59.4800943 L104.943962,53.3668868 L138.159057,53.3668868 L138.159057,59.4800943 C132.860943,59.4800943 129.260943,62.1291509 127.359057,67.4272642 L97.8118868,139.35934 L92.31,140.174434 Z" fill="#C82D2D"></path>
                <g transform="translate(141.509434, 1.495189)">
                    <mask id="mask-2" fill="white">
                        <use xlink:href="#path-1"></use>
                    </mask>
                    <g></g>
                    <path d="M22.3222642,25.380566 C15.119434,25.380566 11.5222642,21.2371698 11.5222642,12.9503774 C11.5222642,5.20698113 15.3939623,1.33528302 23.1373585,1.33528302 C30.4732075,1.33528302 34.1411321,5.20698113 34.1411321,12.9503774 C34.1411321,21.2371698 30.1986792,25.380566 22.3222642,25.380566 L22.3222642,25.380566 Z M1.12981132,134.806981 L1.12981132,128.693774 C10.5033962,128.693774 15.1901887,124.550377 15.1901887,116.263585 L15.1901887,75.7126415 C15.1901887,64.9833962 11.0439623,59.6173585 2.76,59.6173585 L2.76,54.1098113 L32.3071698,47.7956604 L32.3071698,117.075849 C32.3071698,124.822075 37.469434,128.693774 47.7939623,128.693774 L47.7939623,134.806981 L1.12981132,134.806981 Z" fill="#C82D2D" mask="url(#mask-2)"></path>
                </g>
                <path d="M309.731604,136.30217 L309.731604,130.188962 C318.423113,130.188962 322.773113,126.795566 322.773113,120.000283 L322.773113,82.9134906 C322.773113,67.8342453 317.135377,60.2946226 305.859906,60.2946226 C296.078774,60.2946226 289.354245,65.9323585 285.686321,77.2078302 L285.686321,116.943679 C285.686321,125.773868 290.098585,130.188962 298.931604,130.188962 L298.931604,136.30217 L256.139151,136.30217 L256.139151,130.188962 C264.425943,130.188962 268.56934,125.505 268.56934,116.128585 L268.56934,88.2116038 C268.56934,69.6031132 262.931604,60.2946226 251.656132,60.2946226 C238.071226,60.2946226 231.278774,68.5814151 231.278774,85.1578302 L231.278774,119.185189 C231.278774,126.521038 235.691038,130.188962 244.524057,130.188962 L244.524057,136.30217 L202.750472,136.30217 L202.750472,130.188962 C210.358019,130.188962 214.161792,126.795566 214.161792,120.000283 L214.161792,68.0380189 C214.161792,63.8295283 209.542925,61.7182075 200.305189,61.7182075 L200.305189,56.4229245 L229.648585,49.2908491 C230.191981,49.8342453 230.463679,51.195566 230.463679,53.3663208 L230.463679,65.595566 C232.634434,61.5172642 236.16934,57.7842453 241.059906,54.3851887 C245.950472,50.9889623 251.724057,49.2908491 258.38066,49.2908491 C260.825943,49.2908491 263.441038,49.7691509 266.225943,50.7172642 C269.008019,51.6710377 271.591981,52.9248113 273.96934,54.4870755 C276.346698,56.0521698 278.381604,57.8493396 280.082547,59.8870755 C281.78066,61.9248113 282.901415,64.0983962 283.444811,66.4078302 C286.025943,61.245566 289.996698,57.105 295.365566,53.9776415 C300.731604,50.8559434 306.335377,49.2908491 312.176887,49.2908491 C320.32783,49.2908491 326.848585,51.8748113 331.739151,57.0342453 C336.629717,62.1993396 339.075,69.464434 339.075,78.8380189 L339.075,120.000283 C339.075,126.795566 343.487264,130.188962 352.320283,130.188962 L352.320283,136.30217 L309.731604,136.30217 Z" fill="#C82D2D"></path>
                <g transform="translate(362.264151, 46.778208)">
                    <mask id="mask-4" fill="white">
                        <use xlink:href="#path-3"></use>
                    </mask>
                    <g></g>
                    <path d="M45.0730189,86.265566 C50.3711321,86.265566 54.5484906,85.079717 57.6050943,82.7051887 C60.6616981,80.3391509 63.0050943,77.5259434 64.635283,74.2740566 C66.2654717,71.0193396 67.3154717,67.634434 67.7937736,64.1136792 C68.2692453,60.5929245 68.5069811,57.675 68.5069811,55.3712264 C68.5069811,50.9023585 68.2324528,45.9919811 67.6918868,40.6372642 C67.1484906,35.2882075 66.0277358,30.3438679 64.3296226,25.8042453 C62.6286792,21.2646226 60.1833962,17.4353774 56.9937736,14.3193396 C53.7984906,11.2061321 49.5560377,9.64669811 44.2579245,9.64669811 C38.8239623,9.64669811 34.544717,10.8353774 31.4201887,13.2014151 C28.2928302,15.570283 25.9183019,18.3863208 24.2881132,21.6353774 C22.6579245,24.8900943 21.6050943,28.2778302 21.1296226,31.7985849 C20.6513208,35.3221698 20.4164151,38.234434 20.4164151,40.5353774 C20.4164151,45.0099057 20.6881132,49.920283 21.2315094,55.2721698 C21.7720755,60.6212264 22.8928302,65.5712264 24.5937736,70.1080189 C26.2918868,74.6504717 28.7711321,78.4768868 32.0315094,81.5900943 C35.2918868,84.7061321 39.6390566,86.265566 45.0730189,86.265566 M44.2579245,93.3976415 C37.8701887,93.3976415 32.0315094,92.2061321 26.7333962,89.8316038 C21.435283,87.4542453 16.9183019,84.2589623 13.1824528,80.2514151 C9.44377358,76.2466981 6.55981132,71.5627358 4.52207547,66.1910377 C2.48433962,60.8278302 1.4654717,55.1561321 1.4654717,49.1787736 C1.4654717,42.1146226 2.62018868,35.6985849 4.92962264,29.9221698 C7.2390566,24.1485849 10.3607547,19.2240566 14.3032075,15.1457547 C18.2428302,11.0731132 22.8616981,7.94858491 28.1598113,5.775 C33.4579245,3.60141509 39.0928302,2.51179245 45.0730189,2.51179245 C51.1862264,2.51179245 56.8211321,3.70330189 61.9862264,6.08066038 C67.1484906,8.45801887 71.594717,11.6533019 75.3333962,15.6551887 C79.0692453,19.665566 81.9560377,24.3495283 83.9937736,29.7183962 C86.0315094,35.084434 87.0503774,40.7561321 87.0503774,46.7306604 C87.0503774,53.9334906 85.8956604,60.4174528 83.5862264,66.1910377 C81.2767925,71.9674528 78.1522642,76.8580189 74.2126415,80.865566 C70.2701887,84.8731132 65.7220755,87.9636792 60.5598113,90.134434 C55.394717,92.3080189 49.9635849,93.3976415 44.2579245,93.3976415" fill="#C82D2D" mask="url(#mask-4)"></path>
                </g>
            </g>
        </g>
    </g>
</svg>