<?xml version="1.0" encoding="utf-8"?>
<!-- Generator: Adobe Illustrator 21.0.2, SVG Export Plug-In . SVG Version: 6.00 Build 0)  -->
<svg version="1.1" id="Layer_1" xmlns="http://www.w3.org/2000/svg" xmlns:xlink="http://www.w3.org/1999/xlink" x="0px" y="0px"
	 viewBox="0 0 456 141" style="enable-background:new 0 0 456 141;" xml:space="preserve">
<style type="text/css">
	.st0{fill:#FFE6C8;}
	.st1{fill:none;stroke:#FFE6C8;stroke-width:2;}
</style>
<title>Page 1</title>
<desc>Created with Sketch.</desc>
<path class="st0" d="M14.4,55.8c-2.1-6.6-3.1-8.8-7.3-10c-1.6-0.4-4.3-0.6-5.4-0.6C1,45.3,0,45,0,44.1c0-0.6,0.7-0.9,2.2-0.9
	c7.7,0,14.6,0.4,16.1,0.4c1,0,7.6-0.4,14.6-0.4c1.8,0,2.1,0.6,2.1,1c0,0.9-0.9,1.2-2.1,1.2c-1,0-3.1,0-4.8,0.6
	c-1.3,0.4-1.5,1.6-1.5,3.1c0,1.6,1.2,5.8,2.5,11.5c1.9,8,14.7,52.3,17,59.4l27.5-70c2.1-5.7,2.8-6.4,3.6-6.4c1,0,1.8,1.8,3.6,6.6
	l26.4,70c3.6-12.2,16.1-50,20.1-64.8c1-3.9,1.2-4.6,1.2-6.3c0-2.2-0.7-3.9-7.1-3.9c-1.3,0-1.9-0.6-1.9-1.2c0-0.6,0.6-0.9,2.2-0.9
	c5.5,0,11.5,0.4,12.5,0.4c0.9,0,8.2-0.4,12.2-0.4c1.2,0,1.8,0.4,1.8,0.9c0,0.7-0.7,1.2-1.9,1.2c-0.4,0-2.4,0.1-3.9,0.4
	c-4.5,1-6,7.3-8.3,14c-5.8,16.1-19.1,56-23.5,68.3c-3.9,10.4-4.9,12.5-6.1,12.5c-1.5,0-2.4-2.1-4.3-7.6L74.5,65.1
	c-4.8,11.6-22.8,56.6-27.3,67.9c-2.2,5.8-3.3,7.6-4.6,7.6c-1.5,0-2.2-1.9-5.2-11.3L14.4,55.8z"/>
<path class="st0" d="M325.5,124.2c0.4,3.6,1.3,11.9,7.1,13.3c2.5,0.6,5.5,0.9,7.6,1c0.6,0,1.9,0.1,1.9,0.9c0,0.7-0.6,1.2-2.2,1.2
	c-2.7,0-18.8-0.6-23.5-0.9c-3.3-0.3-4.5-0.6-4.5-1.3c0-0.4,0.6-1,1.3-1.3c0.7-0.3,1.2-2.1,0.9-4.2l-6.6-63.7l-31.6,64
	c-2.8,5.8-3.3,7.1-4.6,7.1c-0.9,0-1.6-1.3-4.5-6.4c-2.4-4.3-14.3-28.1-15.2-29.5c-0.9-1.8-15.5-30.7-16.7-33.8l-5.5,57.3
	c-0.1,2.1-0.1,3.4-0.1,5.7c0,1.6,0.7,3.9,3.7,4.5c1.6,0.3,2.7,0.3,4.2,0.4c1.2,0.1,1.5,0.6,1.5,0.9c0,1-0.9,1.2-2.5,1.2
	c-4.8,0-11.2-0.4-12.4-0.4c-1.5,0-7.7,0.4-11.5,0.4c-1.3,0-2.2-0.1-2.2-1.2c0-0.3,0.6-0.9,1.9-0.9c1,0,1.2,0,2.8-0.1
	c3.6-0.3,4.9-3.9,5.7-9.8l10-81.7c0.3-2.5,0.9-3.7,1.6-3.7c0.7,0,1.2,0.4,2.2,2.4l39.9,77.3l38-77.1c0.7-1.6,1.3-2.5,2.2-2.5
	s1.3,1.3,1.5,3.7L325.5,124.2z"/>
<g transform="translate(165.429864, 41.399444)">
	<path class="st0" d="M11.1,0.1h5.5c0.4,0,0.8,0.1,1.2,0.1c0.4,0,0.5,0.2,0.6,0.5s0.1,0.6,0.2,1c0.2,0.9,0.3,1.9,0.3,2.8
		c0,0.3,0,0.7-0.1,1c-0.2,0.5-0.2,1-0.2,1.6c0.1,2,0.1,4,0.2,6c0.1,1.5,0.1,3,0.2,4.6c0.1,2.6,0.2,5.3,0.3,7.9c0,0.8,0.2,1.5,0.7,2
		c0.5,0.6,1,1.3,1.6,1.9c3.6,4,5.3,8.8,5.6,14.1c0,17.1,0,34.3,0,51.4c0,1.3-0.4,2.6-1.2,3.7c-0.3,0.4-0.7,0.7-1.3,0.7
		c-7.2,0-14.4,0-21.5,0c-0.7,0-1.1-0.2-1.4-0.8c-0.8-1.3-1.2-2.6-1.2-4c0-16.4,0-32.9,0-49.3c0-1.5,0.1-2.9,0.3-4.4
		c0.5-3.1,1.5-6.1,3.3-8.7c0.9-1.4,2.1-2.7,3.2-4c0.5-0.7,1.1-1.3,1.1-2.2c0.1-2,0.2-4.1,0.2-6.1c0.1-1.8,0.1-3.5,0.2-5.3
		c0.1-2.5,0.2-5,0.2-7.4c0-0.7-0.1-1.4-0.2-2C8.7,3.7,9,2.2,9.3,0.7V0.6c0.1-0.2,0.2-0.4,0.5-0.4C10.3,0.2,10.7,0.1,11.1,0.1"/>
</g>
<path class="st1" d="M150.5,74.8c-6-8.3-9.4-19.5-9.4-32.8c0-28.1,16.7-40.9,37.4-40.9c20.4,0,38.9,16.7,38.9,46.6
	c0,12.5-2.7,21.4-6.7,27.7"/>
<path class="st1" d="M203.8,69.1c3.3-5,5.5-12.1,5.5-21.9c0-23.3-14.5-36.5-30.7-36.5C162.2,10.7,149,21,149,43
	c0,10.4,2.7,19.2,7.5,25.7"/>
<path class="st1" d="M197.1,62.8c2.6-3.7,4.3-8.9,4.3-16c0-16.7-10.6-26.4-22.5-26.4c-12.1,0-21.8,7.8-21.8,23.6
	c0,7.5,2,13.9,5.6,18.6"/>
<path class="st1" d="M190.4,56.6c1.8-2.4,3-5.8,3-10.2c0-10-6.7-16.3-14.4-16.3s-14,5.3-14,14.9c0,4.6,1.4,8.5,3.7,11.5"/>
<g transform="translate(349.470588, 39.331571)">
	<path class="st0" d="M91.8,52.4c0-30-18.4-46.6-38.8-46.6c-20.7,0-37.4,12.8-37.4,40.9c0,29.2,16.2,48.5,41.2,48.5
		C66.8,95.2,91.8,90.2,91.8,52.4 M1.8,50.6c0-19.8,15.3-49.4,52.1-49.4c29.5,0,52,17.6,52,47.5c0,28.4-21,51.7-52.7,51.7
		C16.6,100.3,1.8,73.2,1.8,50.6"/>
</g>
</svg>
