<?xml version="1.0" encoding="UTF-8"?>
<svg width="221px" height="69px" viewBox="0 0 221 69" version="1.1" xmlns="http://www.w3.org/2000/svg" xmlns:xlink="http://www.w3.org/1999/xlink">
    <!-- Generator: Sketch 42 (36781) - http://www.bohemiancoding.com/sketch -->
    <title>Page 1</title>
    <desc>Created with Sketch.</desc>
    <defs>
        <polygon id="path-1" points="13.1412 48 0.272175236 48 0.272175236 0.0253 13.1412 0.0253"></polygon>
        <polygon id="path-3" points="51.178 0.5522 51.178 48.5092 0.8463 48.5092 0.8463 0.5522 51.178 0.5522"></polygon>
    </defs>
    <g stroke="none" stroke-width="1" fill="none" fill-rule="evenodd">
        <g>
            <path d="M6.9845,27.0017 C5.9765,23.8337 5.4725,22.7537 3.4565,22.1777 C2.6645,21.9607 1.3685,21.8897 0.8645,21.8897 C0.5045,21.8897 0.0005,21.7457 0.0005,21.3137 C0.0005,21.0247 0.3595,20.8807 1.0805,20.8807 C4.8245,20.8807 8.1365,21.0977 8.8575,21.0977 C9.3605,21.0977 12.5285,20.8807 15.9135,20.8807 C16.7775,20.8807 16.9215,21.1697 16.9215,21.3847 C16.9215,21.8167 16.4895,21.9607 15.9135,21.9607 C15.4095,21.9607 14.4015,21.9607 13.6085,22.2497 C12.9615,22.4647 12.8885,23.0407 12.8885,23.7617 C12.8885,24.5537 13.4645,26.5697 14.1135,29.3067 C15.0485,33.1937 21.2415,54.5797 22.3215,58.0367 L35.6425,24.1927 C36.6505,21.4567 37.0105,21.0977 37.3715,21.0977 C37.8755,21.0977 38.2355,21.9607 39.0985,24.2657 L51.8435,58.1077 C53.5725,52.2037 59.6215,33.9137 61.5655,26.7847 C62.0695,24.9137 62.1405,24.5537 62.1405,23.7617 C62.1405,22.6817 61.7815,21.8897 58.6845,21.8897 C58.0375,21.8897 57.7495,21.6017 57.7495,21.3137 C57.7495,21.0247 58.0375,20.8807 58.8295,20.8807 C61.4935,20.8807 64.3735,21.0977 64.8775,21.0977 C65.3095,21.0977 68.8385,20.8807 70.7825,20.8807 C71.3575,20.8807 71.6455,21.0977 71.6455,21.3137 C71.6455,21.6737 71.2865,21.8897 70.7105,21.8897 C70.4945,21.8897 69.5575,21.9607 68.8385,22.1057 C66.6775,22.6087 65.9575,25.6337 64.8055,28.8737 C61.9975,36.6497 55.5885,55.9477 53.4285,61.9247 C51.5565,66.9647 51.0515,67.9737 50.4755,67.9737 C49.7555,67.9737 49.3245,66.9647 48.3875,64.3007 L36.0035,31.4667 C33.6985,37.0817 24.9865,58.8277 22.8255,64.3007 C21.7455,67.1087 21.2415,67.9737 20.5935,67.9737 C19.8735,67.9737 19.5135,67.0367 18.0735,62.5007 L6.9845,27.0017 Z" fill="#000000"></path>
            <path d="M157.3957,60.0525 C157.6117,61.7805 158.0437,65.8135 160.8527,66.4615 C162.0767,66.7485 163.5167,66.8935 164.5247,66.9655 C164.8127,66.9655 165.4607,67.0365 165.4607,67.3975 C165.4607,67.7565 165.1727,67.9735 164.3797,67.9735 C163.0837,67.9735 155.3077,67.6855 153.0027,67.5415 C151.4187,67.3975 150.8427,67.2525 150.8427,66.8935 C150.8427,66.6765 151.1307,66.3895 151.4917,66.2445 C151.8517,66.1005 152.0677,65.2375 151.9227,64.2295 L148.7547,33.4095 L133.4897,64.3725 C132.1217,67.1805 131.9057,67.8285 131.2577,67.8285 C130.8257,67.8285 130.4657,67.1805 129.0977,64.7335 C127.9457,62.6455 122.1847,51.1235 121.7527,50.4755 C121.3207,49.6125 114.2637,35.6425 113.6877,34.1295 L111.0237,61.8525 C110.9527,62.8605 110.9527,63.5085 110.9527,64.5885 C110.9527,65.3815 111.3117,66.4615 112.7517,66.7485 C113.5437,66.8935 114.0477,66.8935 114.7687,66.9655 C115.3437,67.0365 115.4887,67.2525 115.4887,67.3975 C115.4887,67.9015 115.0557,67.9735 114.2637,67.9735 C111.9597,67.9735 108.8637,67.7565 108.2877,67.7565 C107.5677,67.7565 104.5427,67.9735 102.7437,67.9735 C102.0947,67.9735 101.6637,67.9015 101.6637,67.3975 C101.6637,67.2525 101.9517,66.9655 102.5987,66.9655 C103.1037,66.9655 103.1747,66.9655 103.9667,66.8935 C105.6957,66.7485 106.3437,65.0205 106.7037,62.1405 L111.5277,22.6095 C111.6717,21.3855 111.9597,20.8095 112.3207,20.8095 C112.6797,20.8095 112.8957,21.0255 113.4007,21.9615 L132.6977,59.3325 L151.0597,22.0325 C151.4187,21.2405 151.7077,20.8095 152.1397,20.8095 C152.5717,20.8095 152.7877,21.4575 152.8597,22.6095 L157.3957,60.0525 Z" fill="#000000"></path>
            <g transform="translate(80.000000, 20.020300)">
                <mask id="mask-2" fill="white">
                    <use xlink:href="#path-1"></use>
                </mask>
                <g></g>
                <path d="M5.3732,0.0253 L8.0332,0.0253 C8.2252,0.0453 8.4172,0.0783 8.6082,0.0793 C8.7832,0.0803 8.8612,0.1713 8.8932,0.3183 C8.9262,0.4693 8.9302,0.6293 8.9682,0.7783 C9.0832,1.2223 9.1082,1.6763 9.1212,2.1313 C9.1262,2.2943 9.1192,2.4573 9.0702,2.6133 C8.9922,2.8613 8.9822,3.1193 8.9902,3.3723 C9.0182,4.3453 9.0602,5.3173 9.0962,6.2903 C9.1232,7.0263 9.1472,7.7613 9.1752,8.4983 C9.2232,9.7763 9.2772,11.0533 9.3162,12.3333 C9.3272,12.7033 9.4192,13.0363 9.6482,13.3243 C9.8972,13.6353 10.1452,13.9503 10.4152,14.2453 C12.1752,16.1753 12.9892,18.4823 13.1412,21.0553 C13.1402,29.3403 13.1422,37.6253 13.1312,45.9103 C13.1302,46.5503 12.9172,47.1493 12.5472,47.6803 C12.4012,47.8913 12.2142,48.0003 11.9352,47.9993 C8.4632,47.9903 4.9922,47.9893 1.5202,48.0003 C1.2032,48.0013 0.9972,47.8813 0.8382,47.6343 C0.4712,47.0643 0.2812,46.4383 0.2812,45.7593 C0.2782,37.8053 0.2772,29.8513 0.2722,21.8973 C0.2712,21.1843 0.3002,20.4763 0.4112,19.7713 C0.6512,18.2543 1.1572,16.8383 1.9922,15.5433 C2.4402,14.8453 3.0182,14.2543 3.5422,13.6203 C3.8072,13.2993 4.0652,12.9693 4.0862,12.5353 C4.1322,11.5493 4.1632,10.5643 4.1982,9.5793 C4.2282,8.7313 4.2542,7.8823 4.2852,7.0353 C4.3292,5.8433 4.3772,4.6533 4.4222,3.4633 C4.4352,3.1303 4.3712,2.8083 4.3282,2.4803 C4.2302,1.7433 4.3882,1.0173 4.5332,0.2963 C4.5352,0.2833 4.5402,0.2713 4.5442,0.2593 C4.5842,0.1513 4.6502,0.0883 4.7782,0.0823 C4.9772,0.0733 5.1752,0.0453 5.3732,0.0253" fill="#C82D2D" mask="url(#mask-2)"></path>
            </g>
            <path d="M72.7629,36.1531 C69.8579,32.1341 68.2209,26.7161 68.2209,20.3001 C68.2209,6.6911 76.2859,0.5001 86.2949,0.5001 C96.1589,0.5001 105.0879,8.5641 105.0879,23.0371 C105.0879,29.0771 103.7649,33.3811 101.8249,36.4481" stroke="#C82D2D"></path>
            <path d="M98.5773,33.4197 C100.1643,30.9837 101.2383,27.5717 101.2383,22.8397 C101.2383,11.5707 94.2063,5.1867 86.3933,5.1867 C78.4733,5.1867 72.0883,10.1657 72.0883,20.7867 C72.0883,25.8047 73.3983,30.0547 75.7123,33.2037" stroke="#C82D2D"></path>
            <path d="M95.3302,30.3923 C96.5642,28.5883 97.3902,26.0683 97.3902,22.6413 C97.3902,14.5773 92.2532,9.8723 86.4922,9.8723 C80.6602,9.8723 75.9562,13.6403 75.9562,21.2733 C75.9562,24.8933 76.9402,27.9743 78.6622,30.2543" stroke="#C82D2D"></path>
            <path d="M92.0832,27.365 C92.9642,26.193 93.5402,24.564 93.5402,22.443 C93.5402,17.583 90.3012,14.559 86.5922,14.559 C82.8472,14.559 79.8232,17.114 79.8232,21.76 C79.8232,23.981 80.4812,25.894 81.6112,27.305" stroke="#C82D2D"></path>
            <g transform="translate(169.000000, 19.020300)">
                <mask id="mask-4" fill="white">
                    <use xlink:href="#path-3"></use>
                </mask>
                <g></g>
                <path d="M44.4093,25.3232 C44.4093,10.8492 35.4803,2.7852 25.6163,2.7852 C15.6063,2.7852 7.5423,8.9772 7.5423,22.5872 C7.5423,36.7002 15.3903,46.0602 27.4873,46.0602 C32.3123,46.0602 44.4093,43.6122 44.4093,25.3232 M0.8463,24.4592 C0.8463,14.8822 8.2633,0.5522 26.0483,0.5522 C40.3053,0.5522 51.1783,9.0502 51.1783,23.5222 C51.1783,37.2752 41.0243,48.5092 25.6873,48.5092 C8.0463,48.5092 0.8463,35.4032 0.8463,24.4592" fill="#000000" mask="url(#mask-4)"></path>
            </g>
        </g>
    </g>
</svg>