<?xml version="1.0" encoding="UTF-8"?>
<svg width="456px" height="141px" viewBox="0 0 456 141" version="1.1" xmlns="http://www.w3.org/2000/svg" xmlns:xlink="http://www.w3.org/1999/xlink">
    <!-- Generator: Sketch 42 (36781) - http://www.bohemiancoding.com/sketch -->
    <title>Page 1</title>
    <desc>Created with Sketch.</desc>
    <defs>
        <polygon id="path-1" points="27.1743367 99.2579186 0.562823904 99.2579186 0.562823904 0.0523171946 27.1743367 0.0523171946"></polygon>
        <polygon id="path-3" points="105.82962 1.14187964 105.82962 100.31088 1.75004118 100.31088 1.75004118 1.14187964 105.82962 1.14187964"></polygon>
    </defs>
    <g stroke="none" stroke-width="1" fill="none" fill-rule="evenodd">
        <g>
            <path d="M14.4430611,55.8360946 C12.3586448,49.2850719 11.3164367,47.0517688 7.14760407,45.8606738 C5.50984842,45.4119452 2.82988462,45.2651262 1.78767647,45.2651262 C1.04324208,45.2651262 0.00103393665,44.9673525 0.00103393665,44.0740312 C0.00103393665,43.4764158 0.743400452,43.1786421 2.2343371,43.1786421 C9.97645475,43.1786421 16.8252511,43.6273706 18.3161878,43.6273706 C19.3563281,43.6273706 25.9073507,43.1786421 32.9071018,43.1786421 C34.6937443,43.1786421 34.9915181,43.7762575 34.9915181,44.2208502 C34.9915181,45.1141715 34.0981968,45.4119452 32.9071018,45.4119452 C31.8648937,45.4119452 29.7804774,45.4119452 28.1406538,46.0095606 C26.8027398,46.4541534 26.6517851,47.6452484 26.6517851,49.1361851 C26.6517851,50.7739407 27.8428801,54.9427733 29.1849299,60.6025425 C31.1183914,68.6403661 43.9247308,112.863905 46.1580339,120.012543 L73.7041742,50.0274385 C75.7885905,44.3697371 76.5330249,43.6273706 77.2795271,43.6273706 C78.3217353,43.6273706 79.0661697,45.4119452 80.8507443,50.1783932 L107.20579,120.159362 C110.781143,107.950638 123.289708,70.1292348 127.309654,55.3873661 C128.351862,51.5183751 128.498681,50.7739407 128.498681,49.1361851 C128.498681,46.9028819 127.756314,45.2651262 121.352111,45.2651262 C120.014197,45.2651262 119.418649,44.6695787 119.418649,44.0740312 C119.418649,43.4764158 120.014197,43.1786421 121.651952,43.1786421 C127.160767,43.1786421 133.116242,43.6273706 134.15845,43.6273706 C135.051771,43.6273706 142.349296,43.1786421 146.369242,43.1786421 C147.558269,43.1786421 148.153817,43.6273706 148.153817,44.0740312 C148.153817,44.8184656 147.41145,45.2651262 146.220355,45.2651262 C145.773695,45.2651262 143.836097,45.4119452 142.349296,45.7117869 C137.880622,46.7519271 136.391753,53.0072439 134.009563,59.7071534 C128.202975,75.7869362 114.949975,115.692755 110.483369,128.052434 C106.61231,138.474515 105.568034,140.561 104.376939,140.561 C102.88807,140.561 101.996817,138.474515 100.059219,132.965701 L74.4506765,65.0691489 C69.6842285,76.6802575 51.6689163,121.64823 47.2002421,132.965701 C44.9669389,138.772289 43.9247308,140.561 42.5847489,140.561 C41.0958801,140.561 40.3514457,138.623402 37.3737081,129.243529 L14.4430611,55.8360946 Z" fill="#C82D2D"></path>
            <path d="M325.474366,124.180962 C325.921027,127.754247 326.814348,136.09398 332.623004,137.433962 C335.154081,138.027441 338.131819,138.327283 340.216235,138.47617 C340.811782,138.47617 342.151764,138.622989 342.151764,139.369491 C342.151764,140.111857 341.556217,140.560586 339.916393,140.560586 C337.236429,140.560586 321.156647,139.965038 316.390199,139.667265 C313.114687,139.369491 311.923592,139.069649 311.923592,138.327283 C311.923592,137.878554 312.51914,137.285075 313.265642,136.985233 C314.010076,136.687459 314.456737,134.902885 314.156895,132.818468 L307.605873,69.0866131 L276.039787,133.114174 C273.210936,138.920762 272.764276,140.260744 271.424294,140.260744 C270.530972,140.260744 269.786538,138.920762 266.957687,133.860676 C264.575497,129.542957 252.662479,105.716921 251.769158,104.376939 C250.875837,102.592364 236.282855,73.7041742 235.09176,70.5754819 L229.582945,127.903133 C229.436126,129.98755 229.436126,131.327532 229.436126,133.560835 C229.436126,135.200658 230.178493,137.433962 233.15623,138.027441 C234.793986,138.327283 235.836194,138.327283 237.327131,138.47617 C238.516158,138.622989 238.816,139.069649 238.816,139.369491 C238.816,140.411699 237.92061,140.560586 236.282855,140.560586 C231.518475,140.560586 225.116339,140.111857 223.925244,140.111857 C222.436375,140.111857 216.181058,140.560586 212.460954,140.560586 C211.118905,140.560586 210.227651,140.411699 210.227651,139.369491 C210.227651,139.069649 210.823199,138.47617 212.161113,138.47617 C213.205389,138.47617 213.352208,138.47617 214.989963,138.327283 C218.565316,138.027441 219.905298,134.454156 220.649733,128.498681 L230.625153,46.7535814 C230.922927,44.2225045 231.518475,43.0314095 232.264977,43.0314095 C233.007343,43.0314095 233.454004,43.4780701 234.49828,45.4135995 L274.402031,122.692093 L312.372321,45.5604186 C313.114687,43.9226629 313.712303,43.0314095 314.605624,43.0314095 C315.498945,43.0314095 315.945606,44.3713914 316.094493,46.7535814 L325.474366,124.180962 Z" fill="#C82D2D"></path>
            <g transform="translate(165.429864, 41.399444)">
                <mask id="mask-2" fill="white">
                    <use xlink:href="#path-1"></use>
                </mask>
                <g></g>
                <path d="M11.1110968,0.0523171946 L16.6116398,0.0523171946 C17.0086715,0.0936746606 17.4057032,0.16191448 17.800667,0.163982353 C18.1625448,0.166050226 18.3238389,0.354226697 18.3900109,0.658204072 C18.4582507,0.970452941 18.4665222,1.30131267 18.5451014,1.60942579 C18.7829068,2.52756154 18.8346036,3.46637602 18.861486,4.40725837 C18.8718253,4.74432172 18.8573502,5.08138507 18.7560244,5.4039733 C18.5947303,5.91680588 18.5740516,6.45031719 18.5905946,6.97348914 C18.648495,8.98552986 18.7353457,10.9955027 18.8097891,13.0075434 C18.8656217,14.5294982 18.9152507,16.0493851 18.9731511,17.5734077 C19.072409,20.2161498 19.1840742,22.856824 19.2647213,25.5037018 C19.2874679,26.2688149 19.4777122,26.9574167 19.9512552,27.5529643 C20.4661557,28.1960729 20.9789882,28.8474529 21.537314,29.4574756 C25.176771,33.448471 26.8600199,38.2190548 27.1743367,43.5396928 C27.1722688,60.6720231 27.1764045,77.8043534 27.1536579,94.9366837 C27.15159,96.2601226 26.711133,97.4987787 25.9460199,98.5968195 C25.6441104,99.0331407 25.2574181,99.2585389 24.6804814,99.256471 C17.5008253,99.2378602 10.3232371,99.2357923 3.143581,99.2585389 C2.48806516,99.2606068 2.06208326,99.012462 1.7332914,98.5016973 C0.9743819,97.3230095 0.581485973,96.0285208 0.581485973,94.6244348 C0.575282353,78.1765706 0.57321448,61.7287063 0.562875113,45.2808421 C0.56080724,43.8064484 0.620775566,42.3423941 0.850309502,40.8845434 C1.3465991,37.7475796 2.39294299,34.819471 4.11961719,32.1415751 C5.04602443,30.6981995 6.2412552,29.4760864 7.32482081,28.1650548 C7.87280724,27.5012674 8.40631855,26.8188692 8.44974389,25.9214122 C8.54486606,23.8824891 8.60897014,21.8456339 8.6813457,19.8087787 C8.7433819,18.0552222 8.79714661,16.2995977 8.86125068,14.548109 C8.9522371,12.0832041 9.05149502,9.62243484 9.14454932,7.16166561 C9.17143167,6.4730638 9.03908778,5.8072086 8.95016923,5.12894615 C8.74751765,3.60492353 9.07424163,2.10364751 9.37408326,0.61271086 C9.378219,0.585828507 9.38855837,0.561014027 9.39682986,0.536199548 C9.4795448,0.312869231 9.61602443,0.182593213 9.88071222,0.170185973 C10.292219,0.151575113 10.7016579,0.0936746606 11.1110968,0.0523171946" fill="#000000" mask="url(#mask-2)"></path>
            </g>
            <path d="M150.464458,74.7600303 C144.457286,66.4492475 141.072178,55.24551 141.072178,41.9780348 C141.072178,13.8363471 157.749576,1.03414344 178.44692,1.03414344 C198.844422,1.03414344 217.308463,17.7094738 217.308463,47.6378041 C217.308463,60.1277588 214.572667,69.0278855 210.560992,75.3700529" stroke="#000000"></path>
            <path d="M203.845367,69.1077054 C207.127082,64.0703661 209.347978,57.0147824 209.347978,47.2296059 C209.347978,23.9267416 194.806693,10.7254385 178.650399,10.7254385 C162.272842,10.7254385 149.069471,21.0213796 149.069471,42.984262 C149.069471,53.3608502 151.778385,62.1493118 156.563444,68.6610448" stroke="#000000"></path>
            <path d="M197.130776,62.8474258 C199.682531,59.1169824 201.390595,53.9059416 201.390595,46.8193398 C201.390595,30.1440095 190.767929,20.4146656 178.854911,20.4146656 C166.795074,20.4146656 157.067798,28.2064122 157.067798,43.9904891 C157.067798,51.4761905 159.102586,57.8473081 162.663463,62.5620593" stroke="#000000"></path>
            <path d="M190.416391,56.5873529 C192.238187,54.1638054 193.429282,50.7952398 193.429282,46.4092805 C193.429282,36.3594163 186.731441,30.1061674 179.061699,30.1061674 C171.317513,30.1061674 165.064264,35.3895837 165.064264,44.9969231 C165.064264,49.5896697 166.424925,53.5455113 168.761622,56.4632805" stroke="#000000"></path>
            <g transform="translate(349.470588, 39.331571)">
                <mask id="mask-4" fill="white">
                    <use xlink:href="#path-3"></use>
                </mask>
                <g></g>
                <path d="M91.8328059,52.3651692 C91.8328059,22.434771 73.3687652,5.75944072 52.9712629,5.75944072 C32.2718511,5.75944072 15.5965208,18.5637122 15.5965208,46.7074679 C15.5965208,75.8913638 31.8251905,95.2466579 56.8402538,95.2466579 C66.8177425,95.2466579 91.8328059,90.1845041 91.8328059,52.3651692 M1.75004118,50.5785267 C1.75004118,30.7745041 17.0874575,1.14187964 53.8645842,1.14187964 C83.3462538,1.14187964 105.83024,18.714667 105.83024,48.6409294 C105.83024,77.080391 84.8330548,100.31088 53.1180819,100.31088 C16.638729,100.31088 1.75004118,73.2093321 1.75004118,50.5785267" fill="#C82D2D" mask="url(#mask-4)"></path>
            </g>
        </g>
    </g>
</svg>